# xmcd CD database file
#
# Track frame offsets:
#	182
#	14197
#	26827
#	40760
#	53595
#	67900
#	79370
#	93727
#	108520
#	120442
#	134027
#	146407
#	161150
#	175732
#	189817
#	204400
#	216940
#	230510
#	258950
#
# Disc length: 3706 seconds
#
# Revision: 0
# Processed by: cddbd v1.5.2PL0 Copyright (c) Steve Scherf et al.
# Submitted via: CDex 1.70beta2
#
DISCID=100e7813
DTITLE=Louis Armstrong - Highlights from His Decca Years
DYEAR=1994
DGENRE=Jazz
TTITLE0=Wild Man Blues
TTITLE1=Weary Blues
TTITLE2=Georgia Bo Bo
TTITLE3=Shanghai Shuffle
TTITLE4=I'm in the Mood for Love
TTITLE5=Old Man Mose
TTITLE6=Skeleton in the Closet
TTITLE7=She's the Daughter of a Planter from Havana
TTITLE8=Jubilee
TTITLE9=Struttin' with Some Barbecue
TTITLE10=Jeepers Creepers
TTITLE11=I'm Confesin' (That I Love You)
TTITLE12=Wolverine Blues
TTITLE13=Perdido Street Blues
TTITLE14=When It's Sleepy Time Down South
TTITLE15=I Never Knew
TTITLE16=I Wonder
TTITLE17=Muskrat Ramble
TTITLE18=Black and Blue
EXTD=YEAR: 1994
EXTT0=
EXTT1=
EXTT2=
EXTT3=
EXTT4=
EXTT5=
EXTT6=
EXTT7=
EXTT8=
EXTT9=
EXTT10=
EXTT11=
EXTT12=
EXTT13=
EXTT14=
EXTT15=
EXTT16=
EXTT17=
EXTT18=
PLAYORDER=
